<?xml version="1.0" encoding="UTF-8"?>
<!-- Generator: Adobe Illustrator 14.0.0, SVG Export Plug-In . SVG Version: 6.00 Build 43363)  -->
<!DOCTYPE svg PUBLIC "-//W3C//DTD SVG 1.1//EN" "http://www.w3.org/Graphics/SVG/1.1/DTD/svg11.dtd">
<svg version="1.1" id="Layer_1" xmlns="http://www.w3.org/2000/svg" xmlns:xlink="http://www.w3.org/1999/xlink" x="0px" y="0px" width="800px" height="800px" viewBox="0 0 800 800" enable-background="new 0 0 800 800" xml:space="preserve">
<g>
	<path fill-rule="evenodd" clip-rule="evenodd" d="M387.877,380.694c2.182-0.389,3.126,0.458,4.704,0.672   c-0.286,2.291-0.286,5.771,0,8.062c-2.032,0.756-3.614,0.51-7.391,0.673c-0.433-1.188-3.313-3.334-1.344-4.704   C384.207,383.72,387.836,384.315,387.877,380.694z"/>
	<path fill-rule="evenodd" clip-rule="evenodd" d="M410.05,402.867c-1.343,0-2.688,0-4.031,0   C405.488,399.172,410.418,399.819,410.05,402.867z"/>
	<path fill-rule="evenodd" clip-rule="evenodd" d="M434.237,464.009c2.054-0.485,2.449,0.688,4.033,0.672   c-0.917,2.597,0.292,2.649-0.673,4.704c-2.452,0.435-3.577-0.453-4.704-1.345C434.055,466.241,432.421,465.486,434.237,464.009z"/>
	<path fill-rule="evenodd" clip-rule="evenodd" d="M444.316,470.727c-1.187,1.126,0.596,2.252,0,4.706   c-1.537,0.427-4.053,1.331-5.375,0c-0.401-1.197,1.97-2.791,0-3.361C440.205,470.515,442.01,469.499,444.316,470.727z"/>
	<path fill-rule="evenodd" clip-rule="evenodd" d="M453.051,476.774c-0.597,0.298-1.201,0.59-1.345,1.344   c-1.889-0.125-2.86-1.168-2.687-3.36C451.052,473.798,452.897,474.201,453.051,476.774z"/>
	<path fill-rule="evenodd" clip-rule="evenodd" d="M733.9,543.965c4.783-0.919,7.211,2.375,5.375,6.046   c-0.877-0.472-3.556-0.362-4.029,0C733.524,549.268,733.924,546.402,733.9,543.965z"/>
	<path fill-rule="evenodd" clip-rule="evenodd" d="M383.175,6.452c127.537-6.073,222.877,46.834,287.567,107.502   c65.924,61.823,117.928,150.132,123.628,270.771c3.079,65.156-10.729,121.159-30.235,167.301   c-20.063,47.467-46.34,85.585-77.937,119.597c-63.358,68.193-151.521,117.242-271.444,122.955   c-126.962,6.049-220.589-45.224-286.897-106.83C61.399,626.003,10.016,538.484,4.229,416.976   c-3.022-63.473,9.768-121.477,28.891-167.298c19.902-47.689,45.301-84.232,77.938-119.598   c30.696-33.26,68.751-62.659,113.55-83.985C269.065,24.93,320.92,9.417,383.175,6.452z M426.848,57.516   c-6.225,2.285-10.802,6.22-16.798,8.734c0-3.359,0-6.719,0-10.078c-1.86-0.933-5.362,5.803-6.718,5.376   c-1.298-15.278-1.842-31.306-8.063-41.658c-2.462,12.768-3.74,26.72-4.031,41.658c-2.82-1.436-4.235-4.276-7.392-5.376   c-0.958,4.337,1.9,8.379,0,11.422c-6.066-2.892-10.994-6.923-17.469-9.407c2.806,5.486,9.948,10.205,11.423,14.782   c-3.05-1.877-6.956-2.899-10.751-4.03c0.187,3.187,8.549,7.562,8.734,10.75c-10.995,1.547-21.904,3.181-31.579,6.047   c10.297,1.349,21.408,1.884,32.251,2.688c-2.137,3.98-10.606,8.559-9.407,11.422c3.762-1.836,7.948-3.251,12.094-4.703   c-3.934,6.368-9.648,10.955-13.438,17.468c6.864-2.769,12.931-9.909,18.813-11.422c0,4.479,0,8.958,0,13.438   c2.977-1.951,2.552-7.302,4.031-10.75c1.628,1.06,2.972,2.404,4.032,4.032c1.501,61.656-3.439,129.754,3.359,186.114   c2.603-8.459,4.683-18.427,5.375-27.549c3.832-50.503-3.131-109.062-1.343-159.909c1.561-0.455,1.799-2.233,3.36-2.688   c1.832,2.647,2.187,6.771,5.375,8.062c0-3.135,0-6.271,0-9.407c6.327,3.302,11.55,7.71,18.141,10.751   c-2.579-5.711-9.658-10.492-10.75-15.454c3.44,1.271,7.98,4.996,11.422,4.032c-3.047-3.902-8.79-8.671-10.078-12.094   c12.925,0.83,23.217-0.97,32.921-3.359c-8.272-4.718-21.308-4.67-32.249-6.719c1.947-4.169,11.466-7.7,10.078-10.75   c-4.309,1.067-9.056,1.695-12.767,3.359C418.94,67.077,423.825,63.229,426.848,57.516z M318.673,115.299   c-3.449-0.736-4.229,4.695-6.046,3.359c-0.485-10.042-1.364-19.689-6.719-24.861c-2.462,6.723-3.205,15.161-3.36,24.188   c-2.761-0.151-2.858-2.965-6.048-2.687c-0.944,2.78,1.917,5.189,0,6.718c-4.709-2.009-9.254-4.183-14.109-6.047   c0.864,4.296,8.163,5.712,8.062,8.735c-2.662-0.698-4.757-1.962-8.062-2.015c1.478,3.448,5.837,4.015,8.062,6.718   c-9.006,0.176-15.803,2.564-24.86,2.688c4.575,4.833,18.242,0.572,24.188,4.032c-2.876,1.602-5.965,2.994-7.39,6.047   c3.796-0.458,6.376-2.135,10.078-2.687c-2.872,3.628-9.764,6.8-10.078,10.75c4.86-2.53,9.284-5.497,14.781-7.391   c0.703,2.432-1.524,7.796,1.343,8.062c2.807-0.105,0.42-5.403,2.688-6.046c3.671,6.307,2.016,14.504,2.016,22.172   c0,25.761-0.487,57.031,0.672,79.955c3.058,1.645,0.217,9.189,3.359,10.75c9.797-29.094,0.645-78.593,4.703-112.205   c2.186,0.726,1.539,4.284,4.703,4.032c1.924-0.091-0.58-4.612,1.344-4.703c4.676,1.379,9.655,6.013,14.109,5.375   c-2.501-2.882-8.293-6.029-8.734-8.734c2.135,0.753,7.952,4.312,8.734,2.015c-2.695-2.231-5.517-4.336-8.062-6.719   c9.667,0.484,17.909-0.456,25.531-2.016c-5.014-5.063-17.721-2.436-24.859-5.375c3.358-1.569,7.027-2.828,8.735-6.046   c-3.501,0.098-8.45,2.278-10.75,1.343c4.14-1.459,6.005-5.192,9.406-7.39c-4.701-0.999-9.415,3.487-14.109,4.703   C319.193,120.745,318.49,117.58,318.673,115.299z M498.068,115.97c-3.449-0.735-4.229,4.696-6.047,3.36   c-0.487-10.041-1.365-19.688-6.721-24.86c-2.46,6.722-3.204,15.161-3.357,24.189c-2.761-0.151-2.859-2.966-6.048-2.688   c-0.943,2.782,1.917,5.19,0,6.72c-4.708-2.01-9.254-4.184-14.109-6.047c0.864,4.294,8.163,5.709,8.062,8.734   c-2.663-0.698-4.758-1.962-8.062-2.015c1.478,3.448,5.838,4.016,8.062,6.718c-9.008,0.177-15.801,2.563-24.859,2.688   c4.575,4.833,18.241,0.571,24.187,4.031c-2.876,1.602-5.964,2.993-7.39,6.047c3.796-0.458,6.375-2.135,10.079-2.688   c-2.874,3.629-9.765,6.802-10.079,10.75c4.861-2.53,9.283-5.498,14.779-7.391c0.704,2.432-1.522,7.795,1.346,8.063   c2.807-0.105,0.42-5.404,2.688-6.047c3.67,6.307,2.016,14.505,2.016,22.172c0,25.762-0.486,57.031,0.672,79.955   c3.059,1.646,0.218,9.189,3.358,10.75c9.797-29.096,0.646-78.594,4.705-112.205c2.186,0.725,1.536,4.283,4.702,4.03   c1.925-0.091-0.579-4.612,1.345-4.703c4.675,1.379,9.654,6.014,14.107,5.375c-2.501-2.882-8.29-6.029-8.735-8.734   c2.141,0.753,7.954,4.313,8.735,2.016c-2.694-2.232-5.518-4.337-8.062-6.72c9.667,0.484,17.909-0.456,25.531-2.014   c-5.016-5.064-17.719-2.436-24.859-5.377c3.358-1.568,7.027-2.827,8.734-6.046c-3.501,0.099-8.448,2.279-10.749,1.344   c4.138-1.459,6.003-5.193,9.404-7.391c-4.698-0.999-9.413,3.488-14.107,4.704C498.589,121.418,497.885,118.252,498.068,115.97z    M234.015,170.394c-3.449-0.735-4.228,4.695-6.047,3.359c-0.485-10.041-1.364-19.688-6.719-24.86   c-2.461,6.722-3.205,15.16-3.359,24.188c-2.76-0.15-2.858-2.965-6.046-2.687c-0.945,2.78,1.917,5.189,0,6.719   c-4.709-2.01-9.254-4.184-14.11-6.047c0.866,4.294,8.164,5.711,8.063,8.734c-2.662-0.698-4.757-1.962-8.063-2.015   c1.479,3.448,5.839,4.016,8.063,6.718c-9.007,0.176-15.802,2.564-24.86,2.688c4.575,4.832,18.242,0.571,24.188,4.031   c-2.877,1.603-5.966,2.994-7.392,6.047c3.797-0.46,6.376-2.135,10.078-2.688c-2.871,3.628-9.764,6.801-10.078,10.75   c4.861-2.531,9.285-5.499,14.782-7.392c0.704,2.434-1.524,7.795,1.345,8.062c2.806-0.104,0.419-5.402,2.687-6.046   c3.67,6.308,2.016,14.505,2.016,22.172c0,25.761-0.487,57.031,0.671,79.956c3.058,1.644,0.218,9.188,3.36,10.749   c9.796-29.094,0.646-78.593,4.703-112.205c2.186,0.726,1.538,4.284,4.704,4.031c1.924-0.09-0.582-4.612,1.343-4.703   c4.675,1.379,9.654,6.014,14.109,5.376c-2.5-2.883-8.292-6.03-8.734-8.735c2.136,0.754,7.952,4.312,8.734,2.016   c-2.695-2.232-5.518-4.337-8.062-6.72c9.667,0.484,17.91-0.456,25.533-2.015c-5.016-5.064-17.722-2.435-24.86-5.376   c3.357-1.568,7.026-2.827,8.734-6.046c-3.502,0.099-8.449,2.279-10.75,1.344c4.139-1.46,6.005-5.193,9.406-7.392   c-4.7-0.998-9.415,3.488-14.109,4.705C234.535,175.84,233.833,172.674,234.015,170.394z M582.053,170.394   c-3.449-0.735-4.228,4.695-6.046,3.359c-0.485-10.041-1.365-19.688-6.72-24.86c-2.46,6.722-3.204,15.16-3.358,24.188   c-2.76-0.15-2.859-2.965-6.046-2.687c-0.945,2.78,1.915,5.189,0,6.719c-4.71-2.01-9.255-4.184-14.112-6.047   c0.866,4.294,8.165,5.711,8.063,8.734c-2.66-0.698-4.757-1.962-8.063-2.015c1.48,3.448,5.84,4.016,8.063,6.718   c-9.006,0.176-15.802,2.564-24.86,2.688c4.575,4.832,18.242,0.571,24.188,4.031c-2.876,1.603-5.964,2.994-7.392,6.047   c3.798-0.46,6.378-2.135,10.078-2.688c-2.87,3.628-9.761,6.801-10.078,10.75c4.862-2.531,9.287-5.499,14.783-7.392   c0.704,2.434-1.524,7.795,1.342,8.062c2.808-0.104,0.421-5.402,2.689-6.046c3.671,6.308,2.016,14.505,2.016,22.172   c0,25.761-0.485,57.031,0.672,79.956c3.058,1.644,0.216,9.188,3.359,10.749c9.798-29.094,0.645-78.593,4.702-112.205   c2.187,0.726,1.538,4.284,4.705,4.031c1.925-0.09-0.581-4.612,1.345-4.703c4.674,1.379,9.652,6.014,14.107,5.376   c-2.502-2.883-8.293-6.03-8.734-8.735c2.136,0.754,7.952,4.312,8.734,2.016c-2.695-2.232-5.518-4.337-8.062-6.72   c9.665,0.484,17.908-0.456,25.53-2.015c-5.015-5.064-17.722-2.435-24.86-5.376c3.357-1.568,7.029-2.827,8.735-6.046   c-3.502,0.099-8.449,2.279-10.749,1.344c4.138-1.46,6.004-5.193,9.405-7.392c-4.699-0.998-9.414,3.488-14.107,4.705   C582.574,175.84,581.871,172.674,582.053,170.394z M158.093,246.988c-3.451-0.735-4.23,4.695-6.048,3.359   c-0.485-10.041-1.364-19.688-6.718-24.859c-2.461,6.721-3.205,15.16-3.36,24.189c-2.761-0.152-2.857-2.966-6.047-2.689   c-0.943,2.781,1.917,5.19,0,6.72c-4.709-2.011-9.254-4.184-14.109-6.048c0.865,4.294,8.162,5.71,8.062,8.734   c-2.661-0.698-4.756-1.963-8.062-2.015c1.479,3.448,5.838,4.016,8.062,6.717c-9.007,0.176-15.802,2.564-24.859,2.688   c4.574,4.831,18.241,0.571,24.187,4.031c-2.876,1.602-5.965,2.994-7.39,6.046c3.796-0.459,6.376-2.134,10.079-2.686   c-2.873,3.628-9.764,6.8-10.079,10.749c4.86-2.53,9.283-5.498,14.782-7.391c0.703,2.433-1.524,7.795,1.343,8.062   c2.806-0.104,0.42-5.403,2.688-6.046c3.67,6.307,2.016,14.504,2.016,22.173c0,25.761-0.487,57.031,0.672,79.955   c3.058,1.645,0.217,9.188,3.359,10.75c9.796-29.095,0.646-78.593,4.703-112.205c2.186,0.726,1.539,4.284,4.704,4.032   c1.924-0.091-0.581-4.612,1.343-4.704c4.674,1.379,9.654,6.013,14.109,5.375c-2.501-2.882-8.292-6.029-8.734-8.734   c2.136,0.754,7.952,4.312,8.734,2.016c-2.696-2.231-5.519-4.337-8.062-6.719c9.667,0.484,17.909-0.456,25.532-2.016   c-5.016-5.063-17.721-2.435-24.86-5.375c3.359-1.567,7.026-2.827,8.734-6.046c-3.501,0.099-8.449,2.279-10.75,1.344   c4.139-1.46,6.005-5.194,9.406-7.391c-4.7-0.999-9.415,3.488-14.109,4.705C158.612,252.436,157.91,249.269,158.093,246.988z    M657.305,246.988c-3.448-0.735-4.228,4.695-6.046,3.359c-0.485-10.041-1.366-19.688-6.72-24.859   c-2.46,6.721-3.205,15.16-3.358,24.189c-2.76-0.152-2.858-2.966-6.047-2.689c-0.944,2.781,1.915,5.19,0,6.72   c-4.711-2.011-9.256-4.184-14.109-6.048c0.864,4.294,8.163,5.71,8.062,8.734c-2.661-0.698-4.757-1.963-8.062-2.015   c1.478,3.448,5.837,4.016,8.062,6.717c-9.006,0.176-15.802,2.564-24.861,2.688c4.576,4.831,18.243,0.571,24.188,4.031   c-2.877,1.602-5.964,2.994-7.389,6.046c3.795-0.459,6.375-2.134,10.078-2.686c-2.872,3.628-9.763,6.8-10.078,10.749   c4.861-2.53,9.282-5.498,14.78-7.391c0.703,2.433-1.524,7.795,1.345,8.062c2.807-0.104,0.42-5.403,2.688-6.046   c3.671,6.307,2.015,14.504,2.015,22.173c0,25.761-0.486,57.031,0.674,79.955c3.055,1.645,0.215,9.188,3.357,10.75   c9.798-29.095,0.646-78.593,4.704-112.205c2.185,0.726,1.537,4.284,4.702,4.032c1.925-0.091-0.58-4.612,1.346-4.704   c4.675,1.379,9.655,6.013,14.107,5.375c-2.501-2.882-8.292-6.029-8.733-8.734c2.137,0.754,7.953,4.312,8.733,2.016   c-2.694-2.231-5.518-4.337-8.062-6.719c9.667,0.484,17.908-0.456,25.531-2.016c-5.017-5.063-17.721-2.435-24.86-5.375   c3.358-1.567,7.026-2.827,8.735-6.046c-3.502,0.099-8.447,2.279-10.75,1.344c4.139-1.46,6.004-5.194,9.405-7.391   c-4.699-0.999-9.413,3.488-14.107,4.705C657.826,252.436,657.123,249.269,657.305,246.988z M116.435,369.273   c-0.486-4.217-4.807-4.599-6.719-7.391c9.271,0.535,16.848-0.623,24.188-2.016c-4.19-5.664-16.866-2.843-23.515-6.047   c2.629-1.849,7.199-1.758,7.391-6.047c-2.776,0.359-5.287,0.984-8.063,1.343c1.073-3.114,6.799-4.633,6.046-7.391   c-4.076-1.154-7.845,3.792-12.766,4.031c0-2.015,0-4.031,0-6.047c-2.768-0.497-4.061,3.958-5.375,2.688   c-1.639-8.663-1.762-18.841-7.39-23.516c-2.908,6.275-2.312,16.053-4.032,23.516c-1.697-0.991-3.001-2.373-5.375-2.688   c-0.92,2.758,1.622,5.485,0,6.719c-4.607-1.521-10.116-5.449-14.109-5.375c1.215,4.162,5.958,4.792,8.062,8.063   c-2.661-0.699-4.756-1.962-8.062-2.016c0.23,4.25,5.362,3.597,6.719,6.72c-7.717,1.688-18.415,0.397-23.515,4.702   c6.526,1.985,17.173-0.152,22.843,2.688c-2.386,1.42-5.849,1.766-6.047,5.375c3.316-0.043,4.746-1.973,8.062-2.015   c-1.579,3.803-8.588,5.733-8.062,9.405c4.572-2.594,9.75-4.583,14.782-6.72c0,2.464,0,4.929,0,7.392   c4.137,0.555,2.711-4.456,4.703-6.047c3.101,19.968,0.473,45.662,1.344,67.861c2.869,0.938,2.133,5.48,6.046,5.376   c1.439-1.475,2.348-3.478,4.031-4.705c-2.146-20.072-1.528-51.253-1.343-67.86c2.186,0.725,1.539,4.284,4.703,4.032   c2.332,0.315,0.385-3.647,2.016-4.032c4.2,2.294,8.34,4.65,13.438,6.046c-0.808-4.567-5.541-5.209-7.391-8.734   C111.288,367.701,114.191,368.157,116.435,369.273z M725.838,369.273c-0.486-4.217-4.808-4.599-6.719-7.391   c9.272,0.535,16.848-0.623,24.188-2.016c-4.191-5.664-16.866-2.843-23.516-6.047c2.63-1.849,7.2-1.758,7.392-6.047   c-2.776,0.359-5.288,0.984-8.063,1.343c1.072-3.114,6.8-4.633,6.048-7.391c-4.078-1.154-7.846,3.792-12.766,4.031   c0-2.015,0-4.031,0-6.047c-2.77-0.497-4.061,3.958-5.377,2.688c-1.639-8.663-1.762-18.841-7.39-23.516   c-2.906,6.275-2.312,16.053-4.031,23.516c-1.696-0.991-3.001-2.373-5.375-2.688c-0.921,2.758,1.621,5.485,0,6.719   c-4.608-1.521-10.117-5.449-14.109-5.375c1.214,4.162,5.959,4.792,8.062,8.063c-2.661-0.699-4.756-1.962-8.062-2.016   c0.229,4.25,5.361,3.597,6.719,6.72c-7.719,1.688-18.415,0.397-23.517,4.702c6.526,1.985,17.175-0.152,22.845,2.688   c-2.388,1.42-5.849,1.766-6.047,5.375c3.314-0.043,4.746-1.973,8.062-2.015c-1.58,3.803-8.588,5.733-8.062,9.405   c4.57-2.594,9.75-4.583,14.781-6.72c0,2.464,0,4.929,0,7.392c4.137,0.555,2.711-4.456,4.703-6.047   c3.1,19.968,0.473,45.662,1.342,67.861c2.87,0.938,2.135,5.48,6.048,5.376c1.44-1.475,2.349-3.478,4.031-4.705   c-2.146-20.072-1.528-51.253-1.343-67.86c2.184,0.725,1.538,4.284,4.702,4.032c2.331,0.315,0.386-3.647,2.018-4.032   c4.197,2.294,8.337,4.65,13.437,6.046c-0.81-4.567-5.539-5.209-7.39-8.734C720.691,367.701,723.595,368.157,725.838,369.273z    M729.869,533.885c-1.956,1.986-5.828-0.555-7.39,0.672c-0.685-0.882-0.66-2.476-1.344-3.357c-1.569,0-3.135,0-4.704,0   c-2.083-5.31-8.479-6.304-10.079-12.096c-2.565,0.601-4.288-1.096-5.375,0c1.019-4.151-4.451-1.818-3.359-6.047   c-4.3-0.402-5.266-4.139-7.39-6.72c-2.161-0.761-7.106-4.528-8.062-8.733c-5.637-2.491-7.841-7.137-12.766-11.423   c0-1.343,0-2.688,0-4.031c-3.58,0.281-1.826-2.648-6.049-4.031c0-1.565,0-3.135,0-4.703c5.615-0.793,9.375-0.719,14.783,0   c-1.003,1.083,0.578,3.369,0,6.046c3.294,0.514,3.438,4.179,5.373,6.049c2.594,0.096,5.902-0.524,6.721,1.343   c0.753,2.116,0.059,1.522,0,4.032c0.977,1.037,3.439,0.591,5.375,0.672c0.191,2.799,5.042,7.519,9.406,6.047   c1.756,2.403-0.119,4.26,1.343,6.718c1.57-1.521,6.683-0.89,5.376,2.688c2.913,0,5.822,0,8.734,0c0.778,0.993,0.778,1.693,0,2.687   c3.372-0.013,7.112-0.395,6.72,3.36c3.735,0.677,6.079-1.31,6.046,2.687c2.6-0.358,3.28,1.201,6.047,0.673   c1.028,2.137,0.236,2.955,0,5.375c1.115,1.126,3.946,0.536,6.049,0.673c1.043,3.77,1.612,11.938-2.688,13.436   c2.743-0.504,3.047,1.432,4.031,2.688c0.124-0.994,1.623-0.615,2.687-0.671c0-2.912,0-5.823,0-8.734   c0.885-0.686,2.479-0.659,3.361-1.345c-0.215-1.578-1.062-2.523-0.674-4.703c0.883-0.685,2.478-0.658,3.36-1.344   c0-3.808,0-7.615,0-11.422c2.144,0.576,2.079-1.058,3.359-1.344c-0.096-2.425-2.906-11.3,2.688-11.422   c-0.398-3.084,0.207-5.166,1.345-6.719c-4.006-3.727,2.918-7.706,5.372-9.406c-1.051-2.812-5.816-3.769-3.357-8.063   c-4.6,0.83-9.099-1.399-11.423-0.671c1.623-1.563-1.049-1.797-1.345-3.359c-5.736,0.31-12.798-0.705-17.469,0.67   c0.556-1.896-0.947-1.74-0.672-3.358c-4.732-0.347-13.029,1.344-12.094-2.688c-6.182-0.181-8.46-0.1-14.782,0   c0.275-1.618-1.228-1.461-0.672-3.359c-4.03,0-8.062,0-12.093,0c-0.062-1.834,1.118-1.352,0-2.688c-4.927,0-9.854,0-14.783,0   c-0.562-0.781-0.887-1.801-0.67-3.359c-2.912,0-5.824,0-8.733,0c0.344-4.153-4.365-3.25-4.704-6.719   c-2.054-0.485-2.451,0.686-4.032,0.671c-0.937-0.854-0.293-3.289-2.016-3.359c0.102,1.67-0.348,2.79-1.345,3.359   c-1.403-1.324-4.459-0.514-6.046,0c-1.278-3.433-5.378-7.548-12.094-6.045c-0.564-0.782-0.888-1.803-0.672-3.361   c-4.583,0.275-6.427-0.809-10.079,0c-0.342,4.101,0.802,8.651-1.345,9.406c-2.688-1.396-4.605-0.131-6.717,0   c-0.615-2.733-1.45-3.243-0.673-6.045c-5.293-1.97-7.68-9.349-12.094-10.079c0-0.896,0-1.792,0-2.688c-2.016,0-4.033,0-6.048,0   c0.214-1.559-0.108-2.581-0.672-3.359c-2.311-0.295-3.766,0.264-5.375,0.67c1.248-1.187-0.292-1.96-0.672-3.358   c-1.793,0-3.583,0-5.374,0c-1.174-1.369,0.498-1.318-0.672-2.688c-3.312,0.175-6.531,0.26-6.047-3.359   c-9.536-1.001-14.018,0.894-18.813,3.359c-0.884,2.087,0.183,1.917,0,4.703c-1.745,1.84-5.627,1.543-6.047,4.703   c3.354-0.565,4.013,0.11,8.062,0c1.128,2.795,1.69,6.216,0.672,9.408c3.247-0.337,3.417,2.405,3.359,5.373   c4.628-0.704,2.626,5.28,3.359,6.72c0.804-1.614,3.646,0.322,2.688,2.688c3.631-0.429,6.694,0.747,8.733,0   c-0.964,5.817,8.033,3.4,6.719,12.094c8.838-1.67,11.983,2.351,18.141,3.358c1.849,3.387,0.024,6.584-3.358,6.72   c1.555,2.477,0.234,7.829,0.672,11.422c-1.281-1.261-1.215,0.4-3.361,0c0.742,4.087-1.976,2.718-3.357,3.36   c0,0.896,0,1.793,0,2.687c1.114,1.126,3.943,0.536,6.047,0.674c0.017,5.242,4.193,1.307,3.358,6.046   c2.314-0.523,3.211,0.374,2.688,2.688c4.61,0.312,6.199,6.962,10.08,7.392c-0.473,2.201,0.248,6.024-0.674,8.062   c-3.849-1.211-2.678,5.035-7.389,3.36c-0.866-1.585,0.087-1.251-0.674-3.36c-2.015,0-4.031,0-6.046,0   c0.497-3.856-3.096-3.623-4.033-6.047c-0.817,2.541-3.577,3.141-4.029,6.047c0.054-1.125-4.758,1.438-4.704-1.344   c-0.429-2.668,0.854-3.626,2.018-4.703c-2.117-0.753-1.521-0.061-4.032,0c0.102-1.669-0.35-2.789-1.345-3.36   c-0.001,4.691-5.789,3.033-12.767,3.36c0.393,4.488-8.007,3.492-8.733,1.344c1.115-3.045-0.483-4.628,0.672-7.391   c1.082,1.003,3.369-0.579,6.047,0c-0.555-4.88,2.8-2.484,5.375-3.359c0.396-2.317,0.668-4.052,1.344-5.376   c1.817,0.061,5.804-4.185,7.392-4.031c-5.335,0.127-13.805,2.326-10.75-4.703c-5.485,8.046-9.856-6.565-4.704-10.75   c-3.914,1.976-4.307,3.622-7.391,6.72c-2.911,0-5.822,0-8.733,0c0.353-4.424-4.202-1.571-4.034-6.72c-0.895,0-1.791,0-2.687,0   c-0.859-6.306-8.612-5.719-9.406-12.094c-2.678,0.579-4.963-1.005-6.048,0c1.292-4.425-5.003-1.267-3.357-6.047   c-2.625-0.285-2.434-0.101-3.36-2.688c-5.902-0.394-7.583-2.847-8.734-6.719c-3.266,0.801-2.987-1.939-4.031-3.359   c-2.182-0.389-3.127,0.458-4.704,0.671c-1.024-4.35-5.404-5.344-7.39-8.732c0.634-0.571,0.446-1.656,0.673-4.032   c-4.218-1.522-4.795-2.865-6.72-6.047c-5.324,0.171-7.689-2.612-9.407-6.048c-5.213,1.184-4.968-3.094-8.733-3.358   c-0.661-6.026-9.063-7.246-11.424-9.408c-1.228-8.478-7.722-8.273-10.079-14.781c-2.45,0.597-3.577-1.187-4.7,0   c-3.71-6.442-7.757-5.501-10.08-12.094c-1.935-0.063-3.576-0.372-4.032-3.359c-2.562,0.6-4.289-1.098-5.372,0   c1.119-1.335-0.062-0.854,0-2.687c-1.569,0-3.136,0-4.705,0c-0.603-3.465-5.279-3.205-4.703-6.048c-2.239,0-4.479,0-6.72,0   c-1.578,2.963-5.454,7.926-12.094,5.375c1.12-1.335-0.06-0.854,0-2.687c-5.515,0.152-8.348-2.898-8.734-6.047   c-1.345,0-2.688,0-4.031,0c0.875,4.012-2.935,3.337-6.047,3.359c0,1.792,0,3.584,0,5.375c-1.792,0.449-4.155,0.325-3.359,3.359   c-3.687-1.403-3.259,5.184-8.062,3.359c-2.93,3.79-5.971,7.467-10.751,9.406c0.857,3.26-1.677,2.526-2.688,3.359   c-1.056,0.87-7.448,10.855-8.735,8.063c0.501,4.322-6.681,4.495-5.374,7.392c0.458-0.613,2.674-0.646,5.374-0.672   c0.458-3.127,4.33-2.84,4.704-6.048c0.094,1.108,2.803-0.704,4.704,0c-0.142-3.727,4.212-2.956,4.703-6.046   c1.125,1.187,2.252-0.597,4.704,0c-0.325-3.674,1.81-2.884,3.36-3.36c-0.59-3.432,3.417-2.352,4.03-6.046   c4.575-1.958,7.828,12.414,1.344,12.093c0.496,3.632-3.976,2.296-3.359,6.048c-4.781-1.645-1.622,4.65-6.047,3.36   c0,1.791,0,3.582,0,5.373c-0.882,0.686-2.477,0.66-3.36,1.345c2.674,7.164-1.694,9.154-6.046,12.094   c1.449,4.773-3.361,7.965-6.047,8.734c0,0.896,0,1.791,0,2.689c5.65,2.509,2.65-4.79,10.079-2.689c1.119-1.335-0.061-0.854,0-2.687   c4.572,1.736,1.766-4.964,8.062-3.359c0.34-3.469,5.024-2.591,5.375-6.049c4.355,0.373,9.934-0.901,10.751,1.345   c-1.155,3.846,2.262,12.686-3.36,13.439c0.548,2.798-0.914,5.606,0,6.717c-5.477,0.694-2.902,11.925-2.687,15.454   c0.935-0.854,0.292-3.293,2.015-3.359c6.389-1.53,3.85,14.913,2.688,18.141c-1.345,0-2.688,0-4.032,0   c-1.15-3.589-2.049-3.29-4.703-5.375c0.214,1.579,1.062,2.523,0.672,4.703c-6.186,2.2-6.289,8.027-12.767,10.078   c1.056,4.249,0.699,9.206,0,12.094c-1.334-1.119-0.854,0.062-2.687,0c-0.433,2.897,2.817,2.111,2.687,4.704   c-3.53-0.171-2.677,4.043-2.687,7.39c-1.398,1.473-2.172-0.589-3.36,0.673c0.877,2.893-1.39,2.641-2.688,3.359   c0,1.567,0,3.137,0,4.704c-4.71,1.292-4.364,3.996-7.391,7.391c-1.256-1.315-2.461-0.208-4.03,0c-0.572-1.449-0.909-3.485,0-6.047   c-3.305,1.175-3.01,5.948-7.392,6.047c0,0.895,0,1.79,0,2.688c-3.92-0.965-2.568,2.748-4.031,3.357   c-2.9,1.209-1.007,2.703-4.032,3.36c-5.048,1.096-4.144-5.417-3.359-9.406c1.335,1.121,0.854-0.062,2.688,0   c0.022-3.113-0.652-6.924,3.359-6.047c0-1.344,0-2.688,0-4.032c-1.788,0.708-5.161,1.265-6.047-0.672c0-1.344,0-2.687,0-4.03   c6.595-2.342,5.849-7.967,12.766-10.079c0-1.12,0-2.24,0-3.36c-4.506-0.922-3.442,3.727-7.391,3.36   c-0.998,1.971,0.76,2.496-1.344,3.359c-1.12,0-2.24,0-3.36,0c0.101-1.669-0.347-2.789-1.343-3.359   c0.415,3.998-4.314,2.853-6.72,4.031c-2.091,3.825-3.2,6.389-11.421,4.702c-0.373,1.197-0.345,2.79-1.344,3.359   c-1.568,0-3.135,0-4.704,0c0.19-1.756-0.245-2.89-2.015-2.687c-6.56,2.989-5.031,9.55-12.767,8.063   c-0.609-1.743-0.339-2.499,0-4.704c-1.916-1.44-7.166,0.448-6.718-3.359c-0.297-3.07,4.218-3.859,6.047-2.688   c1.159-0.407-0.052-3.188,1.343-3.359c5.188-1.381,3.231,4.384,8.062,3.359c-0.465-2.223-3.827-1.549-3.359-4.704   c1.197-1.712,3.576-2.246,6.719-2.015c0.98-2.9,3.597-3.524-1.344-6.047c1.445,4.61-6.644,1.245-6.719,6.047   c-3.808,0-7.615,0-11.422,0c-0.115,1.006,0.239,2.479-0.673,2.687c-7.781,2.866-13.196-5.368-10.75-12.765   c-2.555,2.422-17.118,9.387-15.454-2.016c1.12,0,2.24,0,3.359,0c-0.789-3.724,2.618-3.65,4.703-2.687   c2.528-1.66,4.389-7.046,7.391-6.049c1.54-3.763,3.436-6.47,6.046-6.047c0.021-5.623,6.792-5.152,9.407-6.72   c0.938-0.562,2.712-3.974,2.688-3.358c0.015-0.354-3.827-0.443-2.688-2.688c-1.343,0-2.688,0-4.031,0   c0.343,3.031-2.506,2.87-5.376,2.688c-0.952,3.901-2.819,2.81-5.375,3.358c-0.565-1.672-0.879-3.598-0.672-6.046   c3.539-0.02,5.334-3.022,6.046-8.062c2.614-1.04,6.305-5.225,7.392-7.392c1.567,0,3.134,0,4.703,0   c0.796-1.667,0.711-4.215,4.031-3.359c-0.216-4.022,4.097-3.517,5.375-6.047c-1.087-1.098-2.81,0.601-5.375,0   c-0.787-1.004-0.835-2.749-2.016-3.358c-2.952,2.027-7.138-0.457-10.75,0c0-0.897,0-1.792,0-2.688c-2.565,0.6-4.289-1.099-5.375,0   c-0.865-1.585,0.088-1.25-0.671-3.359c-4.39-0.09-10.012,1.053-10.079-3.359c-4.409,1.82-4.658-2.03-6.718-1.344   c1.457-0.114,0.304,2.382,0.672,3.358c-3.937,2.011-9.118,3.63-11.422-1.345c-2.752,4.638-12.766,2.017-19.485,2.689   c0.289,3.968-1.121,2.742-3.36,3.359c0.797,3.035-1.567,2.91-3.358,3.359c-2.253,4.655-4.963,8.642-10.079,8.733   c0.712-1.703-1.415-3.83-2.015-2.017c2.125,1.042-0.841,4.033,0.671,4.705c-1.334-1.119-0.854,0.061-2.687,0   c1.014,0.99,1.828,2.688,4.031,4.031c0.998-1.971-0.759-2.496,1.345-3.36c1.226,0.022,7.125,0.36,8.734,0   c1.038,0.979,0.592,3.439,0.672,5.375c-3.978-1.28-3.043,6.038-8.063,3.359c2.093,1.57,1.882,4.816,2.015,6.72   c2.016,0,4.031,0,6.048,0c-0.69,1.348,0.443,5.517,0,8.735c-1.968,0.047-3.788,0.242-3.36,2.688   c0.569,0.997,2.164,0.972,3.36,1.342c0.097-3.767,5.471-4.113,4.703-6.72c2.799-0.549,5.607,0.916,6.718,0   c0.742,1.726,0.464,4.465,4.032,3.36c-1.097,1.086,0.6,2.81,0,5.375c-1.353-0.21-4.836,1.428-2.688,4.031   c1.537-1.273,5.852,0.39,5.375,3.359c-3.089,2.282-4.497,6.963-8.734,4.704c0,2.911,0,5.823,0,8.733   c-1.725,0.33-5.073,2.491-2.688,4.703c6.429-3.483,7.422,6.591,2.688,6.048c3.436,0.872,3.809,3.426,6.047,4.031   c0.597,2.452-1.187,3.578,0,4.703c-0.021,1.223,3.381-1.281,3.36,1.345c-1.316,1.255-0.208,2.46,0,4.03   c-2.619,1.414-7.727,0.338-11.423,0.673c0.15-1.271-0.757-1.482-0.672-2.688c-2.687,0-5.375,0-8.063,0   c-0.563-0.781-0.886-1.801-0.672-3.36c-2.677,0.58-4.964-1.003-6.046,0c0.555-1.898-0.947-1.74-0.672-3.36   c-4.505-0.044-10.373,0.246-12.094-0.67c1.096-1.087-0.6-2.812,0-5.377c-8.735,0-17.47,0-26.204,0   c-0.29-1.053-2.114-0.573-1.344-2.687c-1.344,0-2.688,0-4.031,0c-0.115,1.005,0.24,2.48-0.672,2.687c-1.567,0-3.135,0-4.703,0   c-0.552-2.724-0.583-6.737,1.344-8.733c0.058,0.822,5.609-0.059,4.031-0.673c-4.17,1.035-3.823-2.447-6.719-2.687   c0.153,2.394-0.966,3.514-3.359,3.359c-0.908-0.661-1.343-1.793-2.016-2.688c-0.526-2.987,0.895-4.031,0.671-6.718   c-4.406-0.072-3.312-5.646-6.719-6.719c-0.113,0.782-1.062,0.729-2.016,0.672c-1.181,1.73-0.969,4.853-2.687,6.047   c-5.958-0.541-14.689,1.229-16.798-1.345c0.578-2.797,0.578-3.921,0-6.72c3.635-1.517,5.856-4.444,8.063-7.39   c0.621,0.576,5.395-0.394,8.062,0c-0.589-3.433,3.418-2.352,4.032-6.048c0.093,1.109,2.803-0.702,4.704,0   c0.394-1.397,1.412-2.171,2.016-3.358c-2.784,0.32-4.93,0.004-4.705-2.688c-1.791,0-3.583,0-5.374,0   c0.32-3.68-4.376-2.345-4.032-6.047c-3.064-0.072-6.08-0.189-6.047-3.359c-2.565,0.601-4.289-1.098-5.374,0   c-0.779-1.406,0.313-2.525-2.016-3.359c-0.501,1.515-3.77,0.263-5.376,0.672c4.756,11.801-12.335,12.149-9.407,0   c0.689-1.148,4.434-2.673,2.688-4.031c-0.127,0.951-4.963-1.066-6.047,0.671c0.708,1.79,1.264,5.161-0.672,6.048   c-2.51-0.506-4.413,4.839-9.406,4.032c1.585,1.196-2.236,2.646-4.704,2.015c-1.008,2.696-3.704,3.875-4.031,8.735   c1.731,1.782,3.23-0.093,4.031,2.016c-0.147,1.851-0.41,3.536-2.687,4.702c2.206,0.341,2.962,0.61,4.704,0   c0.564,1.674,0.879,3.601,0.672,6.047c-4.052-1.685-2.895,5.026-7.391,2.688c1.006,3.071,6.054,0.761,4.032,6.047   c-4.348-0.093-5.899,2.611-8.734,4.032c3.804,0.265,7.888-2.117,9.405,1.341c-1.571,0.175-0.386,2.954,0,3.36   c-0.66,0.583-4.489,0.02-2.687,2.018c0.456-0.519,2.233-1.022,2.687,0.671c-0.146,3.422,0.163,6.107-3.358,8.062   c1.788-0.707,5.161-1.264,6.046,0.673c0,1.565,0,3.134,0,4.701c-5.208-1.645-5.38,4.036-9.407,2.688   c0.058,2.405,4.19,0.738,3.36,4.032c3.25,0.333,8.117-0.952,9.406,1.343c-1.146,0.275,0.142,0.866,0,2.015   c-0.201,1.816-2.826,1.206-3.359,2.689c4.861,0.066,11.436-1.583,9.406,5.374c-3.492-1.11-2.109,5.092-4.703,6.719   c-3.136,0-6.272,0-9.407,0c-0.622-1.171,0.022-3.605-2.016-3.358c-2.812,2.213-4.181,4.547-8.062,2.688   c-0.478-3.071,0.756-6.816,0-8.065c-2.619-1.412-7.726-0.335-11.422-0.669c0.101-1.669-0.347-2.791-1.344-3.361   c-1.16,0.408,0.052,3.187-1.344,3.361c-1.18-0.388-3.947,0.811-4.031-0.674c-0.61-1.741-0.34-2.498,0-4.704   c-1.554-0.696-5.155-1.366-6.047-0.67c1.12-1.336-0.06-0.854,0-2.688c-11.637,3.536-11.151-7.748-9.406-15.454   c-1.345,0-2.688,0-4.032,0c0.311,5.032-8.576,2.079-11.423,2.016c2.148,2.105,3.318,5.194,2.688,10.078   c1.531-0.188,2.525,0.163,2.687,1.345c0.741,3.203-0.858,4.068-2.015,5.373c1.771-0.204,1.733,1.402,2.015,2.689   c2.016,0,4.031,0,6.047,0c2.903,5.837-3.841,5.371-4.703,9.406c4.252,0.002,9.761-1.251,8.062,4.702   c-0.413,0.932-2.586,0.103-2.688,1.346c3.335-0.425,2.728,3.094,2.688,6.046c3.337,0.403,2.222-4.046,5.375-2.014   c0.746,4.104-2.588,4.129-2.687,7.389c3.85,0.629,3.598,5.359,3.359,10.079c4.963-0.782,2.425,4.175,3.359,6.046   c4.219-0.558,3,3.698,2.687,6.048c4.247-1.109,3.338,2.935,3.36,6.048c3.08,1.541,6.271,5.311,5.375,8.733   c1.85,0.613,3.696,1.231,4.032,3.359c-0.956,1.284-2.076,2.403-3.36,3.36c8.578-1.637,5.936,7.95,8.735,12.092   c5.063,0.762,5.407,6.241,9.406,8.064c0,1.345,0,2.687,0,4.03c2.773,2.247,8.572,3.979,6.047,9.407   c3.987,0.045,6.611,1.45,6.046,6.047c3.975,2.927,10.861,5.909,9.407,12.093c2.478,0.211,2.922,2.454,4.031,4.033   c1.568,0,3.136,0,4.703,0c1.405,3.3,4.721,4.688,5.375,8.733c5.681,0.143,6.849,4.798,8.063,9.407c1.791,0,3.583,0,5.375,0   c2.543,6.863,9.916,8.897,12.766,15.454c1.567,0,3.136,0,4.703,0c5.967,7.919,14.56,13.212,20.157,21.499c2.688,0,5.375,0,8.062,0   c2.237,5.153,7.842,6.941,10.079,12.094c2.687,0,5.375,0,8.062,0c-0.104,1.672,1.056,2.08,1.344,3.361c1.792,0,3.583,0,5.375,0   c-0.344,3.702,4.352,2.366,4.031,6.047c5.01-0.085,7.251,2.6,8.735,6.046c2.697,0.212,6.909-1.087,6.046,2.688   c3.647-0.512,5.442,0.83,8.735,0.673c-0.051,1.169,0.15,2.09,0.672,2.686c2.688,0,5.375,0,8.063,0   c-0.321,3.682,4.375,2.344,4.031,6.048c2.688,0,5.375,0,8.062,0c0.289,1.279,1.447,1.689,1.344,3.359c2.912,0,5.823,0,8.735,0   c-0.776,5.031,7.913,0.597,6.719,6.047c8.218-1.723,10.359,2.631,16.797,2.688c0.289,1.279,1.447,1.688,1.344,3.358   c3.806,0,7.615,0,11.422,0c0.685,0.884,0.658,2.479,1.343,3.36c4.032,0,8.063,0,12.094,0c-0.051,1.17,0.15,2.09,0.672,2.687   c4.55-0.443,12.923,0.301,19.485,0c0.685,0.883,0.658,2.478,1.344,3.361c7.838,1.342,21.32-2.956,24.86,2.686   c2.871-2.471,3.325-0.597,6.046,0c13.78,3.03,39.209-2.266,55.767,0c-0.188-1.53,0.163-2.523,1.344-2.686   c8.733,0,17.469,0,26.204,0c-0.102-1.669,0.346-2.789,1.345-3.361c4.7,0,9.404,0,14.108,0c0.706-5.114,9.941-1.702,14.781-2.687   c0.937-0.856,0.292-3.292,2.015-3.36c6.531,0.535,9.907,0.073,16.798,0c0.321-4.784,4.144-2.884,9.406-3.358   c-0.862-3.773,3.35-2.474,6.048-2.688c-0.963-5.441,7.484-1.474,7.391-6.047c1.567,0,3.135,0,4.703,0   c-0.16-4.415,5.197-3.313,9.407-3.359c0.932-0.413,0.102-2.586,1.344-2.688c6.456,0.634,6.71-4.936,14.107-3.36   c-1.146-3.739,3.586-3.987,5.377-2.686c0.464-2.896,2.711-4.01,6.72-3.36c-0.485-3.62,2.736-3.533,6.046-3.359   c1.178-5.317,8.239-4.751,10.75-8.733c2.465,0,4.928,0,7.391,0c1.912-3.689,4.292-6.908,10.078-6.72   c-1.268-4.18,3.536-2.287,6.048-2.688c-0.998-3.909,2.336-3.486,5.375-3.359c-0.265-4.519,1.32-7.189,6.719-6.046   c0-1.568,0-3.137,0-4.703c1.495-0.971,3.24-1.689,6.047-1.345c1.216-4.411,5.224-4.759,7.392-9.407   c3.396-0.049,3.843,0.852,6.718,0c0.598-1.64,1.566-2.913,1.344-5.374c4.199-0.279,4.038-4.92,9.407-4.031   c1.877-5.739,9.42-5.809,8.735-14.11c5.742-1.868,6.816-8.411,12.764-10.079c0.572-3.459,2.865-5.197,6.049-6.046   c0.294-3.736,2.974-5.088,6.046-6.047c0-2.016,0-4.032,0-6.047c4.731-1.539,7.23-5.313,9.407-9.406   c4.761-0.168,4.109-5.742,8.733-6.048c0-1.791,0-3.583,0-5.375c0.884-0.685,2.477-0.658,3.359-1.343c0-1.568,0-3.137,0-4.704   c3.682,0.32,2.344-4.375,6.049-4.031c0-1.793,0-3.582,0-5.375c0.882-0.686,2.476-0.66,3.358-1.343   c-1.181-5.927,5.196-8.787,8.734-12.095c0-2.688,0-5.374,0-8.062c3.806,0.447,2.634-4.089,6.047-4.031   c-0.327-6.824,2.558-10.435,6.72-12.768c-2.613-10.384,9.342-12.31,6.719-21.5C736.15,544.519,734.182,538.241,729.869,533.885z    M256.859,427.054c2.065,1.029,2.065-4.387,0-3.358C256.859,424.814,256.859,425.936,256.859,427.054z M214.531,441.838   c0.563-0.783,0.886-1.802,0.672-3.36c-0.672,0-1.343,0-2.016,0C213.087,440.146,213.534,441.267,214.531,441.838z M352.268,449.227   c3.105-0.253,3.837-2.882,6.72-3.357c0.112-2.354-2.364-2.116-3.361-3.359C355.676,445.917,353.692,447.292,352.268,449.227z    M198.405,458.635c3.294,0.156,4.273-1.998,4.704-4.705C200.952,454.909,198.738,455.83,198.405,458.635z M118.451,457.962   c1.901-0.115,4.609,0.577,4.703-1.345c-0.524-0.148-0.782-0.562-0.672-1.343C120.897,455.93,118.22,455.491,118.451,457.962z    M88.216,463.337c-0.691,2.257,2.089,1.046,3.359,1.344C92.046,462.354,89.22,462.271,88.216,463.337z M170.186,465.353   c2.559,0.318,4.194-0.285,4.703-2.016C173.242,461.889,169.919,462.836,170.186,465.353z M589.445,467.369   c0.55-0.489,1.802-4.65-0.672-4.032C589.159,464.518,587.96,467.285,589.445,467.369z M558.538,473.415   c1.005,1.066,3.83,0.983,3.357-1.344C560.229,471.973,558.637,471.946,558.538,473.415z M78.809,478.79   c3.417,0.263,6.751-3.074,5.375-5.375C84.58,477.396,76.93,473.329,78.809,478.79z M573.991,476.774c1.343,0,2.688,0,4.031,0   C578.286,473.501,574.403,475.127,573.991,476.774z M232.672,476.103c0,0.672,0,1.345,0,2.016c1.968-0.046,3.788-0.243,3.359-2.686   C234.474,475.217,233.452,475.539,232.672,476.103z M33.792,480.134c2.386-0.077,5.413,0.485,5.375-2.016   C36.782,478.195,33.755,477.634,33.792,480.134z M231.328,484.838c2.65,0.408,0.79-3.688,1.344-5.377   c-1.271,0.153-1.483-0.757-2.688-0.671C230.457,480.781,231.986,481.717,231.328,484.838z M576.007,488.87   c2.309-0.19,2.414-4.011,0.673-4.704C575.752,485.031,576.013,487.084,576.007,488.87z M160.78,489.54   c0.175-2.189-0.797-3.233-2.687-3.359C158.097,488.192,159.299,489.005,160.78,489.54z M275.673,488.87   c0.399,1.391-0.831,4.413,0.672,4.702c3.21-0.374,2.62-4.547,6.047-4.702C281.224,484.446,278.43,490.235,275.673,488.87z    M32.449,494.243c2.253,0.462,2.456-1.126,2.687-2.687c-0.858-0.038-0.93-0.862-2.015-0.672   C32.557,491.664,32.234,492.687,32.449,494.243z M169.514,493.572c0.527-1.487,4.159,0.128,3.359-2.688   C170.683,490.316,167.363,492.021,169.514,493.572z M350.253,496.258c-0.491-1.525,1.21-5.24-1.344-4.701   C347.795,492.749,347.934,496.48,350.253,496.258z M305.908,497.604c1.044,1.107,2.618-0.23,4.03-0.672   c-0.05-1.17,0.15-2.091,0.673-2.688C308.194,494.515,308.223,497.229,305.908,497.604z M171.529,497.604c0-0.672,0-1.346,0-2.016   c-1.899,0.555-1.74-0.946-3.359-0.671c0,1.117,0,2.239,0,3.357C169.729,498.49,170.75,498.167,171.529,497.604z M315.314,496.932   c-0.619,2.44,4.435,1.536,4.031,0c-0.412-0.197-2.585-1.671-2.688,0C318.236,498.05,316.413,496.87,315.314,496.932z    M92.918,504.994c0,0.447,0,0.896,0,1.343c0.41,0.039,0.796,0.102,0.672,0.673c0.448,0,0.897,0,1.344,0   c0.038-0.41,0.101-0.795,0.672-0.673c0-0.446,0-0.896,0-1.343c-0.41-0.039-0.796-0.1-0.672-0.673c-0.447,0-0.896,0-1.344,0   C93.553,504.731,93.49,505.118,92.918,504.994z M178.921,507.01c0.793,0.773,2.374,0.76,4.031,0.672   C183.021,504.632,179.462,504.407,178.921,507.01z M81.497,506.337c-0.527,2.837,3.604,2.296,3.359,0   C82.788,505.868,83.565,505.868,81.497,506.337z M192.358,506.337c-0.363,2.698,3.898,0.999,4.031,0   C194.819,506.131,193.614,505.022,192.358,506.337z M303.892,506.337c-0.896,0-1.792,0-2.688,0   C300.675,508.925,304.421,508.925,303.892,506.337z M205.796,513.057c2.271-0.04,2.867,1.213,4.031-0.673   c-1.908-0.33-0.967-3.512-4.031-2.688C205.796,510.818,205.796,511.936,205.796,513.057z M92.248,516.416   c0.563-0.779,0.886-1.801,0.671-3.359c-0.408-0.388-3.187-1.572-3.36,0C90.714,513.918,90.392,516.255,92.248,516.416z    M211.17,513.729c1.386-0.407,4.668,1.084,4.032-1.346C213.421,512.396,211.246,512.013,211.17,513.729z M713.071,522.464   c-0.486-2.055,1.16-1.978,0.673-4.032c-0.673,0-1.343,0-2.016,0C710.693,519.454,710.532,523.039,713.071,522.464z M68.731,528.511   c2.35-0.562,1.584-4.239,2.686-6.047c-0.908-0.212-1.282-0.957-2.686-0.673C69.129,524.215,69.864,526.297,68.731,528.511z    M717.104,527.838c0.908,0.211,1.283,0.957,2.688,0.673c-0.222-1.571-0.807-2.775-1.343-4.032c-1.67-0.102-2.79,0.347-3.361,1.343   C717.7,526.857,718.822,524.71,717.104,527.838z M735.916,537.245c2.403,0.865,6.215-5.732,6.72-6.72   C739.681,532.051,736.803,533.651,735.916,537.245z M87.544,537.245c2.471,1.434,3.03-3.421,0.672-2.688   C88.366,535.829,87.458,536.039,87.544,537.245z"/>
	<path fill-rule="evenodd" clip-rule="evenodd" d="M425.504,442.51c0.614,0.456,0.645,2.674,0.672,5.374   c-2.083,0.728-3.783-0.209-4.031,3.359c3.558,2.488,7.194,4.899,7.392,10.749c-1.418,0.598-1.986,2.047-4.032,2.017   c0.826,4.435,3.729,1.772,3.358,6.046c1.792,0,3.583,0,5.375,0c1.446,5.179,2.001,7.644,7.391,10.079   c-0.006,1.785,0.256,3.839-0.672,4.704c1.115,1.125,3.945,0.533,6.048,0.672c-0.368,4.551,4.537,2.066,3.358,6.047   c2.033-0.624,5.229,0.96,5.378,0c2.357,0.476,0.293,3.727,1.342,4.701c-1.674,1.605-5.783,2.621-6.72,6.722   c3.031,0.33,4.019,2.701,3.362,6.717c1.386-1.523,2.138-3.685,6.046-2.687c1.023,2.662,0.186,4.121,0,8.063   c2.751,1.719,11.406,9.142,3.358,12.765c0.852,2.116,8.312-0.312,9.408,1.345c-0.525,2.648-0.525,2.054,0,4.702   c-1.398,1.473-2.174-0.588-3.361,0.672c-0.033,6.086-2.75,6.097-8.062,6.047c0.087-1.204-0.822-1.418-0.673-2.687   c-3.955,0.202-6.399-0.762-8.061,0c-3.922-0.739,2.973-15.816-6.72-12.766c0.776-5.031-7.913-0.597-6.719-6.048   c-2.667,0.394-7.441-0.574-8.062,0c-2.63-0.518-0.556-9.231-1.343-11.422c-3.454-0.578-3.252-4.812-8.063-4.031   c-3.051-5.229-6.569-7.484-13.438-10.078c0.629-14.062,0.62-20.711-8.734-24.188c-0.118-6.697-0.051-20.235,0-26.875   c0.895,0,1.792,0,2.687,0c-0.56-2.887-1.961-1.035-3.359-3.361c-0.095-1.931,1.867-5.239,0-6.718   c0.489-1.526,2.021-2.012,3.359-2.688c0-6.943,0-13.886,0-20.829c3.532,0.186,2.744-1.95,3.359-3.359c1.793,0,3.584,0,5.376,0   c-1.063,7.239,5.248,7.128,3.358,15.453c1.715-0.974,1.702-3.674,5.376-2.688c0.6,2.631,0.372,5.392,0.671,7.391   c-0.528,2.519-2.349,0.042-3.359,1.343c-0.336,2.113,1.465,2.628,0,4.032c2.211-1.404,4.509-1.404,6.72,0c0,1.345,0,2.688,0,4.031   c-3.727,0.797-4.163,1.509-6.72,4.031c0.149,0.96,3.344-0.625,5.376,0C422.403,440.727,424.312,444.09,425.504,442.51z    M412.066,424.368c1.878,0.754,5.904,1.448,5.375-2.017C415.062,422.436,413.617,423.456,412.066,424.368z M412.066,436.462   c0.133-1.925,0.083-3.666-2.017-3.359C409.917,435.025,409.967,436.768,412.066,436.462z M442.301,489.54   c1.531,0.188,2.525-0.161,2.688-1.344c-0.861-0.925-4.02-1.17-4.033,0.674c1.252,0.641,2.246-2.014,2.688,0   C443.123,489.02,442.32,488.888,442.301,489.54z M432.223,495.588c0.557-1.266,2.479-3.491,0-4.031   C431.697,492.022,430.728,495.307,432.223,495.588z M463.803,525.821c-0.062-1.831,1.118-1.352,0-2.687   C461.216,522.604,461.216,526.353,463.803,525.821z M467.159,531.199c-1.119,0-2.238,0-3.356,0   C463.082,534.855,467.173,532.732,467.159,531.199z"/>
	<path fill-rule="evenodd" clip-rule="evenodd" d="M401.315,494.917c0.661,2.697,0.824,5.895,0.672,9.404   c4.132-2.059,7.521,1.33,5.375,5.375c-3.166,0.256-5.769-0.053-5.375-3.359c-1.9,0.829-4.146,0.829-6.046,0   c0-1.567,0-3.136,0-4.701c-1.393-2.457-3.725,0.181-6.048-1.346c-0.061-1.833,1.12-1.352,0-2.687   c-2.446,0.207-4.372-0.106-6.047-0.672c-1.027-2.138-0.235-2.957,0-5.375c3.83,1.197,5.296-5.332,9.407-6.047   c0.128,0.762,0.673,0.372,0.671,0C396.983,490.909,395.355,493.556,401.315,494.917z"/>
	<path fill-rule="evenodd" clip-rule="evenodd" d="M410.05,380.694c1.127,1.114,0.535,3.944,0.673,6.047c-1.12,0-2.241,0-3.36,0   c0.09,3.083,0.574,6.426,0,9.406c-1.783-0.522-7.572,0.471-8.734-0.671c0.673-2.846,1.192-7.348,0-10.079   C402.88,384.275,402.912,378.932,410.05,380.694z"/>
	<path fill-rule="evenodd" clip-rule="evenodd" d="M391.238,486.181c-1.44-0.8-3.755-0.724-4.703-2.015c0-1.345,0-2.688,0-4.032   c1.553-0.532,2.225-0.563,5.374-0.673C393.099,482.65,391.491,482.991,391.238,486.181z"/>
	<path fill-rule="evenodd" clip-rule="evenodd" d="M121.81,474.758c-0.979,4.183-5.651,8.222-2.688,14.112   c-0.197,1.368-1.817,1.316-2.015,2.687c3.875,5.839,8.799,8.217,9.406,16.125c-2.985,0.461-0.664,2.329-2.016,4.702   c-2.039,0.135-4.949,1.208-7.391,2.689c-0.541-2.521-2.118-4.75-0.672-7.392c-1.8-1.458-3.051-0.909-5.375-0.672   c0.248-1.142-0.523-1.268-1.343-1.345c-0.389-2.181,0.457-3.126,0.672-4.702c0.113-1.459-2.383-0.306-3.36-0.673   c0.037-3.098-0.298-6.567,0.671-8.733c1.792,0,3.584,0,5.375,0c-5.393-1.447-1.905-9.447-3.359-14.109   C112.992,476.734,115.366,470.74,121.81,474.758z M115.762,484.166c0.186-2.872-1.949-3.426-3.359-4.705   C112.138,482.416,113.229,484.012,115.762,484.166z M111.059,497.604c-0.213-1.559,0.108-2.579,0.672-3.36   c-0.896,0-1.792,0-2.688,0C108.912,496.167,108.961,497.912,111.059,497.604z M111.731,498.274c0.41,0.039,0.796,0.103,0.672,0.674   c0.674-0.004,0.8,0.542,1.344,0.67c-0.577-2.539,3.008-2.379,4.031-1.344c-0.225-1.566-0.688-2.895-2.017-3.357   C115.328,496.945,112.71,496.792,111.731,498.274z M119.794,507.682c1.651-3.21-4.07-4.725-2.688-3.36   C118.636,504.809,117.307,508.152,119.794,507.682z"/>
</g>
</svg>